<svg width="25" height="12" viewBox="0 0 25 12" fill="none" xmlns="http://www.w3.org/2000/svg">
<path opacity="0.4" d="M20.1479 0.0140495C21.5295 0.154592 22.6076 1.32196 22.6076 2.74065V8.90635L22.5935 9.18634C22.4625 10.4758 21.4373 11.5008 20.1479 11.6319L19.8669 11.646H2.74065L2.45966 11.6319C1.17023 11.5008 0.145063 10.4758 0.0140495 9.18634L0 8.90635V2.74065C0 1.32196 1.07806 0.154592 2.45966 0.0140495L2.74065 0H19.8669L20.1479 0.0140495ZM2.74065 1.02762C1.79475 1.02762 1.02762 1.79475 1.02762 2.74065V8.90635C1.0278 9.85209 1.79486 10.6184 2.74065 10.6184H19.8669C20.8127 10.6184 21.5798 9.85209 21.58 8.90635V2.74065C21.58 1.79475 20.8128 1.02762 19.8669 1.02762H2.74065ZM23.6352 3.76826C24.4621 4.11643 25 4.92631 25 5.8235C24.9999 6.72063 24.4621 7.53064 23.6352 7.87873V3.76826Z" fill="black"/>
</svg>
